<?xml version="1.0" standalone="no"?>
<!DOCTYPE svg PUBLIC "-//W3C//DTD SVG 1.1//EN" "http://www.w3.org/Graphics/SVG/1.1/DTD/svg11.dtd" >
<svg xmlns="http://www.w3.org/2000/svg" xmlns:xlink="http://www.w3.org/1999/xlink" version="1.1">
<metadata>
Created by FontForge 20170924 at Wed Jan  7 04:47:14 2015
 By www-data
Created with the help of MyScriptFont.com
Copyright belongs to the Creator.
</metadata>
<defs>
<font id="Handwritten" horiz-adv-x="10" >
  <font-face 
    font-family="Handwritten"
    font-weight="500"
    font-stretch="normal"
    units-per-em="1000"
    panose-1="2 0 6 3 0 0 0 0 0 0"
    ascent="800"
    descent="-200"
    x-height="410"
    cap-height="660"
    bbox="9.03509 -151.031 859.125 800"
    underline-thickness="50"
    underline-position="-150"
    unicode-range="U+0020-20AC"
  />
<missing-glyph horiz-adv-x="364" 
d="M33 0v666h265v-666h-265zM66 33h199v600h-199v-600z" />
    <glyph glyph-name=".notdef" horiz-adv-x="364" 
d="M33 0v666h265v-666h-265zM66 33h199v600h-199v-600z" />
    <glyph glyph-name=".null" horiz-adv-x="0" 
 />
    <glyph glyph-name="nonmarkingreturn" horiz-adv-x="333" 
 />
    <glyph glyph-name="space" unicode=" " horiz-adv-x="420" 
 />
    <glyph glyph-name="exclam" unicode="!" horiz-adv-x="339" 
d="M29 117q12 13 29 14t53 -10q16 -5 11 -31t-27 -52q-20 -24 -29 -28t-29 3q-18 7 -23 15.5t-4 31.5q1 15 6.5 32t12.5 25zM93 85q0 11 -18 11t-29 -11q-13 -12 -12.5 -29.5t13.5 -17.5q12 0 29 17.5t17 29.5zM133 543q8 30 13.5 48.5t11 33.5t9 20.5t8.5 10.5t9.5 3.5
t11.5 -2.5q21 -6 66 -12q24 -3 37.5 -6.5t22 -13.5t8.5 -21.5t-8.5 -36.5t-22.5 -53t-39 -76q-24 -47 -44.5 -89t-32 -68t-21 -48.5t-15 -34t-9.5 -20t-9 -11.5t-10 -4t-16 0q-47 2 -55 18q-10 20 16 113q5 18 17 60q32 111 52 189zM305 602q-9 8 -60 14q-18 3 -25.5 4
t-17.5 -2.5t-13 -6.5t-9.5 -18t-9.5 -27t-11 -43q-17 -65 -58 -187q-38 -116 -28 -133q5 -10 25 -6q11 3 27 33t53 107t74 145q25 46 40.5 81.5t12.5 38.5z" />
    <glyph glyph-name="numbersign" unicode="#" horiz-adv-x="537" 
d="M429 550q8 21 21 22q8 1 8 -12q0 -8 -7.5 -41t-13 -62.5t-3.5 -34.5q5 -8 44 -8q49 0 49 -18q1 -15 -38 -23q-12 -2 -27 -2q-30 -1 -40 -5.5t-15 -19.5q-10 -26 -1 -32t49 2q47 9 61 3q21 -8 -4 -23q-20 -12 -53 -16q-49 -7 -64 -18q-11 -9 -45.5 -112.5t-42.5 -107.5
q-34 -22 -9 72q2 11 6 24q26 88 21 100q-3 8 -25 8q-26 0 -37.5 -13.5t-18.5 -51.5q-12 -66 -29 -70q-15 -4 -13 49v10l3 51h-56q-57 0 -58 10t55 17q59 8 70 20q12 13 17.5 39.5t-2.5 31.5q-6 4 -120 -13q-100 -15 -101 -3q0 3 4 7q3 3 113 30.5t120 36.5q12 12 20 71
q7 55 17 53q10 -3 10 -63v-59l35 3q22 2 36 10t23 23.5t14 30t12.5 40.5t14.5 44zM363 355q-5 9 -34 9q-23 0 -41 -18.5t-18 -42.5q0 -17 9.5 -20t37.5 4q24 7 39.5 30t6.5 38z" />
    <glyph glyph-name="dollar" unicode="$" horiz-adv-x="363" 
d="M172 583q41 18 43 18.5t56 -23.5q82 -35 74 -86q-3 -20 -13 -19.5t-15 21.5q-5 19 -37.5 40.5t-41.5 12.5t-12 -103l-3 -94l42 -28q39 -26 59.5 -57t26.5 -74q9 -62 -25 -107.5t-89 -45.5q-38 0 -44.5 -10.5t-11.5 -69.5q-6 -64 -18 -59q-14 6 -14 84q0 39 -6.5 50.5
t-43.5 37.5q-39 28 -64 61.5t-25 56.5q0 27 21 5q9 -10 24 -30q21 -29 50.5 -51.5t36.5 -15.5q5 5 17 116l11 111l-45 43q-31 30 -38.5 44t-7.5 45q0 85 93 127zM169 381q9 8 18 82.5t2 82.5q-6 6 -23.5 -6.5t-33.5 -34t-19 -37.5q-4 -18 0.5 -30.5t20.5 -32.5
q12 -13 22 -20t13 -4zM300 235q-7 14 -22 29.5t-28 23.5l-32 19l-9 -25q-10 -25 -13 -117l-3 -93l40 3q56 3 76.5 51.5t-9.5 108.5z" />
    <glyph glyph-name="percent" unicode="%" horiz-adv-x="585" 
d="M441 252q16 24 59 24t59 -24q16 -21 16.5 -52t-11 -57.5t-30.5 -49.5t-42 -29t-45 4q-24 13 -31.5 41t-2.5 57t13 52t15 34zM525 235q-23 42 -53 -8q-14 -24 -16 -66t10.5 -49.5t36 18t28.5 52.5q6 32 -6 53zM336 422q42 41 78 74.5t57.5 51t22.5 14.5q1 -5 -15 -26.5
t-40 -46.5l-328 -350q-90 -100 -99 -90q-2 2 -2 6q0 16 110.5 140t215.5 227zM44 482q24 47 52.5 69t55 20.5t50.5 -20.5q28 -21 27 -58t-31 -78q-56 -77 -116 -80q-44 -2 -57 39q-14 43 19 108zM187 519q-16 19 -44 12.5t-53 -34.5q-49 -56 -40 -97q7 -31 40 -21
q20 6 44 26q34 30 50 64t3 50z" />
    <glyph glyph-name="ampersand" unicode="&#x26;" horiz-adv-x="428" 
d="M212 602q35 8 52.5 8t43.5 -9q29 -10 39.5 -29t10.5 -59q0 -29 -10 -45.5t-55 -60.5l-64 -63l51 -85q42 -69 52 -74q6 -3 17 7q18 16 19 4q1 -10 -11 -29q-7 -11 -4 -21t20 -33q27 -36 36 -36q3 0 6 -4.5t3 -10.5q0 -26 -35 -5q-13 7 -29 21l-33 30l-37 -25
q-48 -33 -110 -42.5t-112 8.5q-42 14 -50.5 54.5t18 94t81.5 105.5l60 57l-26 57q-70 153 67 185zM311 555q-26 24 -80.5 15.5t-73.5 -38.5q-9 -14 5.5 -58t36.5 -71l18 -22l55 54q45 43 54 70.5t-15 49.5zM250 230q-51 84 -59 89q-10 6 -66 -50t-69 -85q-28 -69 -3 -95
q15 -15 81 -12t102 20q20 10 29.5 15t17.5 14t8.5 15t-4.5 20.5t-13 27.5t-24 41z" />
    <glyph glyph-name="quotesingle" unicode="'" horiz-adv-x="126" 
d="M81 559q22 36 32 32q7 -2 1 -22q-23 -72 -74 -153q-30 -48 -30 -27q0 11 28.5 80t42.5 90z" />
    <glyph glyph-name="parenleft" unicode="(" horiz-adv-x="188" 
d="M130 614q27 28 34 28q9 0 13 -10t-4 -15q-17 -11 -42.5 -60t-46.5 -111q-23 -67 -37 -172t-8 -162q18 -173 3 -162q-7 5 -19 60q-16 70 -13 192.5t22.5 195.5t46 131t51.5 85z" />
    <glyph glyph-name="parenright" unicode=")" horiz-adv-x="192" 
d="M106 627q17 17 51 -50q17 -33 21 -60.5t4 -112.5q0 -87 -5.5 -122.5t-32.5 -117.5q-30 -93 -63.5 -156.5t-53.5 -67.5q-18 -3 -17 8q1 12 23 45q49 72 83.5 196.5t34.5 230.5q0 65 -4 91t-21 60q-25 51 -20 56z" />
    <glyph glyph-name="asterisk" unicode="*" horiz-adv-x="286" 
d="M68 572q7 0 31.5 -24.5t30.5 -24.5q9 0 9 58t7 65q19 19 22 -22v-17q0 -44 12 -44q6 0 18 14q14 17 27.5 16.5t16 -14t-7.5 -31.5q-16 -25 -14 -30t28 -5q17 0 23 -3.5t4 -13.5q-3 -18 -37 -21q-43 -3 -51 -8.5t6 -24.5q9 -14 12.5 -27.5t0.5 -22t-12 -8.5q-26 0 -26 -70
q0 -16 -2.5 -27.5t-6.5 -11.5q-10 0 -10 79q0 68 -11.5 78t-50.5 -23q-36 -31 -53 -25q-5 2 -4 7q0 2 26 42q19 29 8 29q-3 0 -9 -3q-14 -5 -29.5 0.5t-15.5 14.5q0 8 35 15q32 6 39 16t-9 27q-21 24 -14 37q2 3 7 3z" />
    <glyph glyph-name="plus" unicode="+" horiz-adv-x="353" 
d="M180 456q-2 77 10 74q11 -2 26 -78l15 -73l58 -3q35 -2 45.5 -5.5t8.5 -14.5q-2 -9 -14 -14t-42 -7l-53 -5l-3 -92q-5 -115 -26 -119q-4 0 -8 4q-5 6 -5 106v101l-93 3q-89 3 -89 14.5t88 21.5l84 10z" />
    <glyph glyph-name="comma" unicode="," horiz-adv-x="102" 
d="M53 76q24 33 35 22t-14 -56q-22 -42 -35.5 -54.5t-23.5 -2.5q-9 9 -0.5 30t38.5 61z" />
    <glyph glyph-name="hyphen" unicode="-" horiz-adv-x="287" 
d="M10 254q7 5 51 5.5t103.5 -4.5t80.5 -11q13 -4 22.5 -10t9.5 -11q0 -7 -66.5 -7.5t-133.5 9.5t-67 29z" />
    <glyph glyph-name="period" unicode="." horiz-adv-x="104" 
d="M21 117q20 22 45 18t28 -29q2 -22 -12 -36t-37 -11q-26 4 -33 21.5t9 36.5z" />
    <glyph glyph-name="slash" unicode="/" horiz-adv-x="310" 
d="M254 470q40 53 45 53q17 0 -117 -228l-121 -207q-32 -56 -47 -60q-9 -2 1 24q28 73 105 207.5t134 210.5z" />
    <glyph glyph-name="zero" unicode="0" horiz-adv-x="376" 
d="M201 605q44 16 89 -15q76 -51 76 -168t-75 -234q-65 -101 -146 -101q-39 0 -65 21t-47 70q-19 44 -22 114t7.5 133.5t32 110t47.5 46.5q13 0 13 -5t-23 -39q-37 -55 -43.5 -176t24.5 -181q60 -116 158 -18q56 56 87.5 150.5t15.5 159.5q-21 87 -73.5 98t-127.5 -57
l-29 -26l15 30q12 24 40 52t46 35z" />
    <glyph glyph-name="one" unicode="1" horiz-adv-x="266" 
d="M28 499q0 7 72 94.5t81 84.5q8 -3 8.5 -22.5t-4.5 -51t-13 -69t-17.5 -79t-18 -79t-15 -70.5t-7.5 -52l-2 -44l72 3q45 3 58.5 0.5t13.5 -11.5q0 -13 -16.5 -19t-74.5 -12q-23 -3 -43 -9t-25 -12q-6 -8 -13 -8.5t-13.5 3t-18 7t-23.5 3.5q-21 0 -19 10.5t26 21.5
q7 4 11.5 7t8 7t6 12.5t5.5 18t6.5 28.5t8 39.5t12 55t15.5 70.5q30 126 26 138q-2 7 -18 -10.5t-37.5 -39t-32.5 -21.5q-19 0 -19 6z" />
    <glyph glyph-name="two" unicode="2" horiz-adv-x="346" 
d="M152 563q25 10 38 6.5t39 -25.5q24 -21 28 -36t4 -76q0 -53 -5.5 -77.5t-23.5 -59.5q-28 -54 -46 -78q-21 -27 -14 -35q10 -10 107 -20q57 -7 57 -20t-45 -14.5t-105 9.5q-34 6 -52.5 4t-52.5 -16q-52 -22 -63 -11q-15 15 -2 30t48 25q41 10 73.5 44t62.5 97
q54 111 23 186q-8 21 -16.5 29t-22.5 8q-20 0 -47 -27t-42 -62q-11 -25 -15 -26q-3 0 -7 9q-12 27 15.5 74t63.5 62z" />
    <glyph glyph-name="three" unicode="3" horiz-adv-x="369" 
d="M160 600q27 18 47.5 25t46.5 7q43 0 66.5 -16t32.5 -52q23 -85 -62 -194q-21 -27 -22.5 -34t11.5 -15q65 -37 65.5 -94t-62.5 -117q-56 -54 -133.5 -69t-118.5 20q-28 24 -20 35q8 10 36 -10q18 -14 33 -16.5t47 0.5q39 5 75 22t60.5 41t38.5 49.5t11 51t-25 42.5
q-17 13 -30.5 16t-40.5 -1q-86 -12 -92 -5q-3 2 -3 8q0 15 45 28q59 17 110 80t52 122q1 44 -24 65.5t-67.5 14t-90.5 -41.5q-38 -28 -38 -18q-1 2 0 6q2 7 17 21.5t35 28.5z" />
    <glyph glyph-name="four" unicode="4" horiz-adv-x="400" 
d="M310 563q18 34 23 3q4 -25 -3 -77q-11 -76 -11 -135v-59h35q36 0 36 -14t-38 -17l-38 -4l-7 -64q-17 -126 -32 -127q-7 3 -8 28t3 99l4 54h-79q-79 0 -128 -4q-52 -6 -57 7q-2 6 12 12q64 30 96 50t69 53q45 40 79 87t34 70q0 19 10 38zM290 374q0 16 -2 24.5t-4 12
t-8.5 -0.5t-11.5 -9l-18 -18q-7 -8 -12 -12.5t-13 -12.5t-16 -15.5t-17 -14.5q-37 -32 -37 -37.5t59 -5.5q41 0 52 4t18 21q10 26 10 64z" />
    <glyph glyph-name="five" unicode="5" horiz-adv-x="347" 
d="M110 558q37 7 67.5 9.5t47.5 -0.5t16 -10q-2 -7 -71 -23t-74 -21q-8 -7 -10 -78l-2 -72l25 6q79 20 130 8t78 -57q18 -29 19.5 -71t-13.5 -71q-36 -69 -139 -121q-92 -47 -145 -35q-29 6 -29 31q0 13 48 8q44 -6 99.5 18t97 64.5t48.5 80.5q7 38 -12 72t-55 45
q-37 13 -88.5 0t-74.5 -40q-25 -28 -35 -25.5t-3 36.5q9 38 10 136l1 99z" />
    <glyph glyph-name="six" unicode="6" horiz-adv-x="334" 
d="M171 590q41 45 65 42q10 -1 10 -14q0 -6 -5.5 -11.5t-12.5 -7.5q-31 -8 -87.5 -102.5t-77.5 -171.5q-14 -52 -14 -121t13 -101q24 -58 81.5 -55.5t111.5 64.5q60 68 5 134q-36 42 -73.5 42.5t-63.5 -39.5q-15 -23 -25 -23q-18 0 -6 29q9 21 26.5 39t32.5 24.5t38 6.5
q24 0 39 -7t38 -30q38 -38 51 -81q9 -30 7 -43t-19 -45q-24 -45 -66 -74.5t-91 -33.5q-35 -4 -47.5 0.5t-36.5 28.5q-41 41 -51 112t8 148t57.5 155t92.5 135z" />
    <glyph glyph-name="seven" unicode="7" horiz-adv-x="372" 
d="M11 592q2 3 89.5 5t174.5 1t87 -4t-13 -25q-12 -19 -63.5 -212t-57.5 -246q-10 -74 -32 -69l-4 2q-12 7 0 71.5t27 128t12 66.5q-5 6 -43 -4q-22 -7 -46.5 -9.5t-40.5 -1t-16 7.5q0 7 66 29t86 22q15 0 30 52q42 146 38 154q-2 4 -124 6.5t-128 -0.5q-3 -4 0 -17t7.5 -33
t8.5 -38t2.5 -31t-10.5 -13t-14 13t-12.5 45t-15.5 54q-13 38 -8 46z" />
    <glyph glyph-name="eight" unicode="8" horiz-adv-x="367" 
d="M10 470q0 47 31 78.5t71.5 40t81 -1.5t58.5 -37q10 -16 10.5 -28t-8.5 -40q-8 -27 -25.5 -59.5t-29 -52.5t-9.5 -25q3 -8 53 -42q48 -33 81 -81t33 -85q0 -40 -21.5 -56t-73.5 -16q-92 1 -157 45t-65 106q0 24 7 39.5t28 39.5l36 40l-51 47q-33 32 -41.5 46.5t-8.5 41.5z
M228 517q0 13 -11.5 23t-30 14t-40 3t-44 -10t-40.5 -25q-65 -62 46 -138l34 -23l19 24q19 23 43 70.5t24 61.5zM210 284q-42 27 -54 28t-44 -19q-27 -17 -40 -46.5t-3.5 -54.5t42.5 -50.5t68 -34.5q40 -11 85.5 -7.5t54.5 18.5q18 28 -13.5 76.5t-95.5 89.5z" />
    <glyph glyph-name="nine" unicode="9" horiz-adv-x="305" 
d="M137 591q25 10 45.5 10t54.5 -10q41 -13 50 -26q13 -20 3 -111q-3 -23 -10 -85q-23 -179 -26 -218t-18 -39q-14 0 -17 26.5t1.5 65t11 77t10.5 67.5t1 32q-4 4 -62 -30q-82 -50 -131 -33t-38 92q8 59 44 111.5t81 70.5zM240 556q-16 6 -54 6q-46 0 -87 -44t-55 -109
q-7 -32 10.5 -48t50.5 -7q37 11 79 43t56 60q15 33 15 63.5t-15 35.5z" />
    <glyph glyph-name="colon" unicode=":" horiz-adv-x="187" 
d="M20 133q23 27 53 -5q19 -21 8 -41.5t-40 -17.5q-22 3 -29 24t8 40zM102.5 419q15.5 24 36 24t30.5 -23q12 -26 4.5 -41t-33.5 -15q-32 0 -42.5 15.5t5 39.5z" />
    <glyph glyph-name="semicolon" unicode=";" horiz-adv-x="196" 
d="M39 85q0 42 17 42q14 -1 20 -27q1 -3 1 -7q3 -28 -13.5 -71.5t-34.5 -53.5q-21 -11 -19 8q2 14 15 45q14 35 14 64zM129 379q-28 28 -14 47t43 16q24 -3 27.5 -23.5t-17.5 -39.5q-14 -12 -19.5 -12t-19.5 12z" />
    <glyph glyph-name="less" unicode="&#x3c;" horiz-adv-x="424" 
d="M283 487q38 20 62 22.5t29 -13.5q2 -5 -6.5 -13t-22.5 -15q-61 -31 -158 -91t-97 -68q0 -9 66 -17.5t144.5 -24.5t101.5 -41q13 -14 12 -17t-18 -3q-12 0 -30 4t-70 13.5t-125 20.5q-145 21 -159 45q-10 17 28 49q24 20 102.5 68t140.5 81z" />
    <glyph glyph-name="equal" unicode="=" horiz-adv-x="494" 
d="M11 245q-3 10 6 9q5 0 18 -4q19 -5 106.5 -7t167 -4t84.5 -6q11 -12 -17 -17q-29 -6 -127 -8q-106 -2 -168.5 7.5t-69.5 29.5zM19 395q0 6 112.5 7.5t227.5 -1.5t121 -9q12 -13 -17 -17q-36 -6 -180 -5q-144 0 -204 6t-60 19z" />
    <glyph glyph-name="greater" unicode="&#x3e;" horiz-adv-x="434" 
d="M33.5 501q4.5 7 19.5 -1t81 -45t148 -77q56 -26 97 -49.5t43 -29.5q4 -10 0.5 -17.5t-16 -15t-29 -13.5t-45 -15t-57.5 -17t-72.5 -21.5t-83.5 -27.5q-74 -25 -94 -25q-15 0 -15 2.5t14 13.5q32 25 116 53.5t152.5 48.5t70.5 27q0 2 -11.5 9.5t-31.5 18t-46.5 24
t-55.5 28t-57.5 29.5t-53 30t-43 28t-27 24t-4 18z" />
    <glyph glyph-name="question" unicode="?" horiz-adv-x="294" 
d="M26 129q14 16 36.5 17.5t34.5 -13.5q8 -10 6.5 -21.5t-10.5 -21t-20.5 -15.5t-25 -6t-23.5 8q-14 12 -14 23.5t16 28.5zM101 622q36 23 71 20t62 -21t41 -53.5t7 -76.5q-10 -62 -45 -105.5t-129 -113.5q-44 -32 -50 -62q-4 -28 -14 -28.5t-13 26.5q-4 31 13.5 53.5
t72.5 58.5q28 18 55.5 42.5t38.5 40.5q38 55 39 110t-35 82q-28 17 -59.5 13.5t-59 -27.5t-34.5 -57q-7 -36 -25 -46q-7 -4 -12 3q-5 9 4.5 42t24.5 56q16 24 47 43z" />
    <glyph glyph-name="at" unicode="@" horiz-adv-x="620" 
d="M276 643q72 36 133.5 28t106 -48.5t69.5 -116.5t25 -176q0 -78 -13.5 -123.5t-48.5 -83.5q-42 -45 -91.5 -57.5t-87 10t-45.5 73.5q-7 37 -9.5 37t-42.5 -40q-36 -36 -64 -38.5t-37 30.5q-8 30 4 96t33 109q24 50 55.5 68.5t60.5 -0.5q22 -14 38.5 -45.5t10.5 -46.5
q-5 -14 6 -14q15 0 10 -10q-5 -9 -20 -13t-17.5 -15.5t0.5 -59.5q4 -78 36 -101t95 7q53 25 80 95t20.5 160.5t-45.5 171.5q-28 56 -60.5 79t-84.5 23q-51 0 -90.5 -18.5t-87.5 -63.5q-102 -97 -150 -249.5t-9 -256.5q25 -65 99.5 -110t155.5 -44q24 0 83.5 11t103.5 24
q19 5 18 -1q0 -1 -1 -2q-6 -10 -76 -33q-100 -32 -202.5 -12t-159.5 83q-40 45 -53.5 84.5t-13.5 111.5q0 95 36 193t97.5 174t132.5 110zM336 377q-23 25 -34.5 25t-39.5 -23q-25 -22 -43 -68t-24 -108q-4 -36 -2 -47.5t13 -14.5q19 -7 47 22.5t47.5 66t19.5 52.5
q0 23 20 40q20 16 19.5 23.5t-23.5 31.5z" />
    <glyph glyph-name="A" unicode="A" horiz-adv-x="378" 
d="M123 669q21 26 47 -16q17 -27 45 -96q31 -75 43.5 -94t30.5 -19t30 -15q7 -9 4.5 -14t-18.5 -11l-25 -9l24 -66q25 -66 45 -104q32 -62 13 -68q-1 -1 -3 -1q-17 0 -43 54t-49 114t-28 65q-8 10 -65 5l-56 -5l-23 -89q-48 -188 -73 -188q-12 0 -11 14q1 10 31 120
q25 88 27.5 118t-13.5 36q-9 4 -12.5 9.5t0 10t11.5 4.5q18 0 27 26.5t19 106.5q12 99 22 112zM213 443q7 7 -25 88t-40 81q-4 0 -13 -68t-9 -100q0 -12 20.5 -13t42 4t24.5 8z" />
    <glyph glyph-name="B" unicode="B" horiz-adv-x="392" 
d="M126 680q47 19 95 4.5t69 -54.5q12 -23 12 -61t-12 -67q-7 -16 29 -37q44 -26 58 -79t-5 -108.5t-66 -89.5q-79 -57 -194 -50q-38 3 -56.5 8.5t-30.5 17.5q-23 23 -12.5 34t37.5 -6q24 -17 29 -9q5 9 -14 194t-28 209q-7 25 -5 30.5t8.5 14.5t6.5 22q0 10 6 13.5t15.5 3
t26 2t31.5 8.5zM264 568q0 33 -14 52.5t-34.5 25.5t-44 5t-41 -5.5t-27.5 -10.5q-18 -10 -22.5 -18t-0.5 -28q1 -10 21 -191.5t26 -198.5q8 -24 43 -22.5t84 27.5q48 24 69 58t21 86q0 60 -39.5 84.5t-89.5 -3.5q-43 -25 -68 -9q-20 11 0 30q15 14 46 24q70 22 71 94z" />
    <glyph glyph-name="C" unicode="C" horiz-adv-x="373" 
d="M175 666q45 19 81 10q23 -5 2 -17q-12 -6 -37 -13q-77 -19 -122 -85t-50 -168q-3 -49 0.5 -71.5t16.5 -50.5q9 -19 24 -38t27 -28q44 -31 102 -28t99 39q38 34 43 26q2 -4 2 -15q0 -20 -32 -45.5t-70 -35.5q-56 -15 -107.5 1.5t-85.5 56t-49.5 99.5t-3.5 127
q16 85 58 147t102 89z" />
    <glyph glyph-name="D" unicode="D" horiz-adv-x="354" 
d="M19 641q-29 33 38 39q66 6 128 -8q5 -1 9 -2q71 -24 110.5 -86.5t39.5 -151.5q0 -114 -67 -193q-41 -50 -113.5 -67.5t-110.5 13.5q-17 14 -17.5 19t12.5 15q8 5 11.5 12.5t1.5 11.5q-5 8 -16 195t-26 203zM199 632q-29 13 -78.5 18t-58.5 -4q-1 -18 0 -22.5t8 -76
t13 -162.5q12 -173 17 -181q12 -20 69.5 3.5t89.5 61.5q53 65 53 161q0 151 -113 202z" />
    <glyph glyph-name="E" unicode="E" horiz-adv-x="480" 
d="M109 649q2 2 56.5 11.5t120.5 17.5t121.5 9t60.5 -13q3 -10 -13 -14q-21 -6 -168 -24q-138 -16 -144 -22.5t0 -80.5q4 -49 8.5 -62t16.5 -15q134 -12 134 -24q0 -10 -82 -7l-81 4l-13 -45q-13 -44 -33 -94q-29 -70 -25 -78q3 -6 27 -6q29 0 83 -14t114.5 -25t111.5 -7
q18 2 33 3t24 0.5t9 -1.5q0 -5 -29 -20q-25 -13 -61.5 -14t-77 6.5t-80 16.5t-82.5 17t-73 8q-51 0 -56.5 8.5t23.5 62.5q62 115 65 289q2 106 10 113z" />
    <glyph glyph-name="F" unicode="F" horiz-adv-x="430" 
d="M45 602q13 0 33 7t40 16.5t65.5 31.5t87.5 41q94 42 122 42q30 1 27 -10q-4 -18 -76 -46q-53 -21 -153.5 -64.5t-127.5 -57.5q-11 -6 -11.5 -15t7.5 -49q6 -33 10 -57q16 -91 20 -98q3 -4 38.5 9t74.5 27t48 11q40 -16 -67 -56q-5 -2 -12 -4l-83 -30l-6 -66
q-11 -107 -30 -107q-10 0 -8 81q2 117 -1.5 170t-17.5 120q-19 89 -14.5 96.5t34.5 7.5z" />
    <glyph glyph-name="G" unicode="G" horiz-adv-x="486" 
d="M184 666q35 18 80 15t72 -25q31 -26 31 -40q0 -24 -28 -1q-3 3 -8 7q-28 26 -65 26.5t-73 -20.5t-69 -63t-53 -97q-19 -51 -20.5 -116.5t15.5 -101.5q22 -47 75.5 -65t118 -3t116.5 60q57 49 63 84q3 18 -17 17q-6 0 -14 -3q-32 -10 -120 -15.5t-101 1.5q-33 17 14 25
q20 4 76 9q85 7 123 15q58 11 71.5 -11t-15.5 -78q-23 -45 -71.5 -83.5t-103.5 -56t-75.5 -19t-58.5 9.5q-39 11 -73 42.5t-50 71.5q-19 48 -13 110.5t27.5 121.5t60.5 109t85 74z" />
    <glyph glyph-name="H" unicode="H" horiz-adv-x="430" 
d="M262 664q10 18 27 -27q10 -26 21 -72l21 -87l44 -5q42 -4 45 -20q3 -13 -31 -17h-2q-17 -2 -25 -5t-14.5 -9.5t-6.5 -24.5t2 -39t7 -63q15 -111 16.5 -141t-9.5 -34q-8 -3 -14 4t-12 26.5t-12 51.5t-13 81l-17 126l-59 -3q-59 -2 -89 -10q-22 -7 -25.5 -16t-0.5 -56
q4 -70 -3.5 -128.5t-19.5 -58.5q-8 0 -11.5 24.5t-5.5 96.5l-3 121l-29 5q-30 5 -33 19q-1 7 9 9q6 2 13 2q27 0 32 21.5t-5 95.5q-13 99 2 98q3 0 7 -4q6 -7 23 -96.5t21 -92.5q5 -6 82 7t85 21q6 6 -7 100.5t-10 99.5z" />
    <glyph glyph-name="I" unicode="I" horiz-adv-x="325" 
d="M76 643q58 0 120 8t84 9q23 1 30 -2t5 -14q-3 -17 -62 -28l-60 -10l-6 -128q-7 -128 -14 -198l-8 -70l61 4q60 4 78 -3q26 -10 -2 -22q-29 -13 -80 -13q-31 0 -49 -4t-22.5 -8.5l-8 -8t-12 -2.5t-28.5 9q-23 8 -47 11.5t-34.5 5t-10.5 7.5q0 10 42.5 10t58.5 13
q26 21 44 281q2 24 3 34t0 25t-1.5 19.5t-6 12.5t-9 9.5t-16 6t-21 5.5t-29.5 5q-63 10 -63 22.5t64 13.5z" />
    <glyph glyph-name="J" unicode="J" horiz-adv-x="481" 
d="M163 651q3 5 8 6t14 -1t20 -5.5t28.5 -8t37.5 -9.5t49.5 -9.5t60.5 -7.5q86 -8 90 -16q2 -4 -7 -14q-7 -8 -23.5 -10.5t-53.5 -1.5l-65 3l-7 -99q-7 -117 -33.5 -210.5t-62.5 -129.5q-27 -24 -55.5 -22t-56.5 23t-48.5 45.5t-30.5 46.5q-9 20 -14 52.5t-3.5 56.5t9.5 24
q10 0 10 -22q0 -46 32.5 -103.5t71.5 -77.5q25 -14 32.5 -13.5t25.5 18.5q29 26 55.5 114t39.5 201q9 71 4 96t-29 25q-12 0 -37.5 10t-45 22.5t-16.5 16.5z" />
    <glyph glyph-name="K" unicode="K" horiz-adv-x="360" 
d="M83 414q5 0 17.5 17t46.5 60t77 88q29 31 52 51t27 19q23 -8 1 -39q-13 -18 -45 -54q-85 -92 -111.5 -128.5t-16.5 -47.5q7 -8 62 -53t106 -86.5t51 -46.5q0 -6 -8.5 -7.5t-22 2.5t-29.5 12q-20 11 -111 86q-85 69 -93 54q-3 -5 0 -18q10 -40 13 -98t-5 -62
q-13 -9 -19 15q-2 8 -27 181q-11 78 -24 159q-18 109 -13 117q8 15 21 -22q5 -15 35 -149q11 -50 16 -50z" />
    <glyph glyph-name="L" unicode="L" horiz-adv-x="536" 
d="M11 263q2 62 2 177q1 162 10 170q5 4 14 -13q2 -5 5 -13q18 -46 9 -294l-4 -119l114 -3q84 -2 137 5t207 41q22 4 21 -4q-1 -13 -36 -27q-4 -2 -9 -4q-60 -21 -138 -32.5t-136.5 -13t-108 -3.5t-60.5 -7q-18 -8 -24.5 -1.5t-2.5 141.5z" />
    <glyph glyph-name="M" unicode="M" horiz-adv-x="442" 
d="M27 719q9 17 47 -47q14 -22 30 -53q34 -65 83 -145t55 -80q4 0 63.5 79t68.5 97q5 10 13.5 15.5t15.5 4.5q11 -2 14 -38t4 -178q1 -213 8.5 -230t-6.5 -17q-37 0 -45 226l-6 142l-23 -28q-15 -18 -37 -52.5t-37 -57t-23 -22.5q-18 0 -61 61.5t-81 123t-42 62.5
q-4 0 -8.5 -52t-8 -136t-5.5 -170q-3 -107 -17 -109q-7 0 -17 14q-6 7 1.5 292t13.5 298z" />
    <glyph glyph-name="N" unicode="N" horiz-adv-x="412" 
d="M13 636q6 17 17.5 14.5t15.5 -21.5q8 -30 60 -126t100 -171q21 -31 33 -48.5t21 -28t13.5 -10.5t8.5 3q8 8 32 80t51 172q12 46 26 42q6 -2 10 -13q9 -23 -42 -193.5t-69 -175.5q-9 -4 -53.5 57.5t-108.5 166.5q-65 108 -70 110q-1 0 -5 -4q-5 -5 6.5 -170t1.5 -175
q-11 -11 -16 3q-12 34 -26.5 250t-5.5 238z" />
    <glyph glyph-name="O" unicode="O" horiz-adv-x="556" 
d="M139 672q37 19 79 23t81.5 -6.5t78 -32t69.5 -51.5t54.5 -68t35 -78t8.5 -84t-23 -84q-30 -61 -88 -107t-126.5 -64.5t-126.5 -2.5q-42 11 -83.5 49t-63.5 84q-23 49 -24 126t20 137q19 54 20 70q0 13 31 44t58 45zM337 636q-62 28 -114 23.5t-84 -19.5t-36 -27
q-5 -16 -25 -61q-52 -115 -28.5 -227t109.5 -157q45 -20 93.5 -18t95.5 27t84.5 59.5t60.5 78.5t23 84q0 61 -54 132.5t-125 104.5z" />
    <glyph glyph-name="P" unicode="P" horiz-adv-x="442" 
d="M34 592q9 0 14.5 2.5t10.5 6.5t21.5 12.5t40.5 18.5q48 18 118 19q94 0 143.5 -38.5t49.5 -112.5q0 -42 -14.5 -71.5t-52.5 -65.5q-39 -38 -76 -55t-85 -19h-3q-14 -1 -19.5 -1t-13 -2.5t-10 -3.5t-5.5 -7.5t-3 -10.5t0.5 -17t1.5 -22t4 -30q1 -4 1 -6q4 -31 2.5 -41.5
t-10.5 -10.5q-12 0 -18 21t-21.5 97t-40.5 159q-25 84 -45 118q-16 28 -13.5 44t23.5 16zM302 612q-45 13 -99.5 5t-108.5 -35q-24 -12 -30.5 -20t-2.5 -17q5 -11 31.5 -90.5t38.5 -117.5q4 -15 58 -12.5t89 18.5q33 14 68.5 51t47.5 67q16 45 -11.5 90.5t-80.5 60.5z" />
    <glyph glyph-name="Q" unicode="Q" horiz-adv-x="525" 
d="M127 656q31 17 50 20t64 0q75 -6 131 -34t86.5 -69.5t45.5 -93t11.5 -103t-20 -100t-44.5 -85.5q-51 -66 -156 -88l-62 -13l-4 -46q-3 -48 -13 -46q-14 2 -20 74q-2 17 -12 28.5t-36 26.5q-65 38 -102 110t-36.5 159.5t39.5 167.5q20 43 34.5 60t43.5 32zM346 617
q-34 18 -111 23l-78 5l-39 -42q-76 -80 -66 -228q4 -65 22.5 -108.5t58.5 -77.5q57 -51 129.5 -51t129.5 51q64 57 82 163q14 90 -18.5 158.5t-109.5 106.5z" />
    <glyph glyph-name="R" unicode="R" horiz-adv-x="441" 
d="M10 551q0 15 15 31t15 31t8 15.5t20.5 -3.5t25.5 6q14 12 42 20q64 20 102.5 -10.5t38.5 -100.5q0 -35 -22.5 -78t-55.5 -72q-22 -19 -19 -28t35 -22q41 -17 110.5 -61.5t89.5 -66.5q14 -15 16 -21t-7 -10q-15 -6 -84 42q-66 45 -138 79.5t-87 29.5q-10 -4 -13 -25
t-3 -85q0 -117 -18 -116q-4 0 -9 5q-6 6 -10 177q-5 217 -16 242q-5 12 -17 8q-11 -4 -15 -1t-4 14zM228 595q-21 27 -54 27q-31 0 -65.5 -23t-31.5 -43q2 -18 9 -90q6 -68 18.5 -79.5t51.5 16.5q58 42 79.5 98.5t-7.5 93.5z" />
    <glyph glyph-name="S" unicode="S" horiz-adv-x="265" 
d="M122.5 672q24.5 10 43.5 7.5t41 -17.5q23 -17 37.5 -47t8.5 -48q-6 -16 -21 -14.5t-15 17.5t-23.5 44t-37.5 28q-12 0 -55 -43q-26 -27 -34.5 -42t-8.5 -38q0 -30 15 -48.5t88 -80.5q46 -39 69.5 -83t22.5 -79t-27 -58t-74 -23q-36 0 -83 26.5t-55 52.5q-8 25 1 25
q8 0 29 -18q50 -41 94 -47.5t64 24.5t1 67.5t-87 98.5q-69 62 -88.5 96t-7.5 75q8 29 43 72t59.5 53z" />
    <glyph glyph-name="T" unicode="T" horiz-adv-x="439" 
d="M330 670q36 5 53.5 6.5t29 0t14 -6t2.5 -14.5q0 -13 -13 -17.5t-63 -9.5q-74 -7 -85 -11q-25 -10 -30 -51q-3 -21 -6 -163q-3 -229 -26 -252q-5 -5 -13 -3q-7 3 -9 14q-2 21 8 252q7 174 -4 181t-88 -4q-89 -12 -90 5q0 5 15 14q16 8 121 28.5t184 30.5z" />
    <glyph glyph-name="U" unicode="U" horiz-adv-x="390" 
d="M22 564q15 25 20 -18q3 -27 3 -80q0 -124 29 -198.5t82 -86.5q44 -11 80 66t43 197q7 108 18 108q13 0 44 -200q22 -143 31 -175q13 -41 1.5 -52.5t-21.5 -1.5q-9 9 -24 62.5t-15 77.5t-9 22q-12 -3 -30 -44q-22 -50 -47.5 -72t-61.5 -22q-56 0 -94 54.5t-55 158.5
q-8 46 -5.5 117.5t11.5 86.5z" />
    <glyph glyph-name="V" unicode="V" horiz-adv-x="319" 
d="M72 399q-17 58 -39 132q-24 83 -20 88q2 3 9 3q17 0 38.5 -54t59.5 -186q41 -146 48 -146t13 46q12 86 53 203t60 117q25 0 7 -50q-4 -13 -12 -31q-62 -147 -70 -288q-7 -114 -31 -115q-7 0 -17 9q-18 15 -37 66.5t-62 205.5z" />
    <glyph glyph-name="W" unicode="W" horiz-adv-x="461" 
d="M418 634q17 17 25 17q22 0 -27 -106q-2 -5 -5 -10q-49 -105 -64.5 -178.5t-12.5 -194.5q2 -92 0 -116.5t-14 -31.5q-14 -8 -27 0t-27.5 35.5t-31 73.5t-35.5 116q-16 56 -25 56t-12 -121q-2 -74 -5.5 -98t-12.5 -24q-17 0 -44 105t-51.5 223t-33.5 134q-6 11 -5 15t11 4
q31 0 67 -172q19 -90 32 -90q9 -1 16 33q6 33 21 47q27 28 52 -34q7 -18 15 -46q56 -194 68 -194q5 0 5 58t3 140.5t15 126.5q15 53 50.5 132.5t52.5 99.5z" />
    <glyph glyph-name="X" unicode="X" horiz-adv-x="371" 
d="M10.5 622q5.5 10 13.5 10t52 -59.5t71 -107.5q29 -51 33 -51q3 0 45.5 43.5t85 85t46.5 37.5q8 -8 -5.5 -28.5t-73.5 -93.5q-42 -50 -57 -73.5t-11 -34.5q5 -17 61.5 -132t71.5 -140q8 -12 8 -19t-8 -14q-17 -17 -53.5 42t-72 135.5t-40.5 81.5q-6 7 -28 -26.5
t-47.5 -87.5t-40.5 -101q-26 -78 -42 -37q-7 19 19 91t62 135q44 76 44 92q0 14 -29.5 68t-71.5 116q-38 58 -32.5 68z" />
    <glyph glyph-name="Y" unicode="Y" horiz-adv-x="291" 
d="M10 635q8 13 36 -36q25 -43 73 -149q67 -148 79 -146q4 0 4 9q0 5 22.5 116t31.5 151q5 23 13 22q12 -1 12 -37q0 -29 -38.5 -225t-50.5 -227q-7 -19 -16.5 -24.5t-16.5 5.5q-5 8 9 80q11 52 10 65.5t-16 34.5q-21 30 -89 191t-63 170z" />
    <glyph glyph-name="Z" unicode="Z" horiz-adv-x="448" 
d="M26 587q-9 19 276 23q77 1 105 -1.5t31 -9.5q4 -11 -85 -104t-89 -105q0 -16 35 -16t35 -11q0 -6 -14 -11q-13 -5 -58 -12q-31 -5 -44 -14.5t-36.5 -43.5t-50.5 -64t-41 -44t-14 -20q0 -7 28.5 -7.5t70.5 5t78 15.5q73 19 78 14.5t-18 -23.5q-28 -23 -88.5 -37
t-127.5 -14q-29 0 -45.5 1t-28 5t-13.5 9.5t3.5 17t17 24.5t32.5 35q102 107 102 135q0 11 -24.5 11t-24.5 8t21 14.5t45 6.5q13 0 32 19.5t52 60t62 68.5q45 44 45 50q0 4 -85 4.5t-171.5 2.5t-90.5 8z" />
    <glyph glyph-name="bracketleft" unicode="[" horiz-adv-x="379" 
d="M57 -81q2 0 40 19.5t81.5 39.5t60.5 20q18 0 19.5 -2.5t-10.5 -15.5q-19 -21 -109 -66t-108 -43q-14 2 -19 15.5t0.5 45t21 81t43.5 127.5q46 129 56 169.5t10 98.5q0 70 12.5 91t62.5 33q39 9 93 7q33 -1 44.5 -4.5t12.5 -14.5q2 -8 -2.5 -12t-17 -5t-27.5 -1t-40 -3
t-49 -9l-45 -12v-59q-1 -66 -13.5 -115.5t-60.5 -183.5q-73 -201 -56 -201z" />
    <glyph glyph-name="backslash" unicode="\" horiz-adv-x="61" 
d="M12 617q15 40 24 -24q11 -77 14 -320q2 -180 -11 -186q-3 -2 -8 3q-6 7 -15.5 259.5t-3.5 267.5z" />
    <glyph glyph-name="bracketright" unicode="]" horiz-adv-x="381" 
d="M143 542q4 7 96 -6q58 -8 79.5 -15.5t35.5 -23.5q13 -14 15.5 -24.5t-0.5 -24t-15 -44.5t-27 -72t-38.5 -121.5t-47.5 -178.5q-25 -107 -35 -120q-10 -12 -97.5 -13.5t-94.5 10.5q-9 13 7 17q14 4 78 6l83 4l41 162q14 53 27.5 101.5t24.5 81t20.5 61.5t16.5 46.5
t12 32.5t7.5 23t2.5 15t-3 11t-9 9q-10 7 -61 16.5t-89 20.5t-29 26z" />
    <glyph glyph-name="a" unicode="a" horiz-adv-x="324" 
d="M98 435q35 18 53 17.5t40 -21.5q15 -13 22 -34t13 -69q10 -75 21.5 -98t40.5 -29q28 -6 26.5 -17.5t-29.5 -14.5q-27 -4 -51 23l-25 26l-15 -30q-14 -28 -45.5 -54.5t-50.5 -26.5q-33 0 -56 27.5t-28.5 70t0 87.5t28.5 85t56 58zM198 340q0 15 -6 31.5t-17 30t-32.5 10
t-48.5 -30.5q-19 -20 -32 -50.5t-15.5 -61.5t1.5 -59t18 -45.5t34 -17.5q19 0 42.5 31.5t39.5 77.5t16 84z" />
    <glyph glyph-name="b" unicode="b" horiz-adv-x="291" 
d="M19 651q14 0 22 -61.5t12 -123.5t7 -62q2 0 20 12t38.5 23t49.5 14t53 -15q40 -28 55 -100t-8 -125q-22 -52 -78 -99t-96 -47q-23 0 -47 26.5t-19 46.5q2 31 0 41.5t-8 95t-9 194.5q-2 105 -0.5 142.5t8.5 37.5zM194 413q-20 11 -28 11q-12 0 -43.5 -22.5t-46.5 -42.5
q-14 -17 -16.5 -34.5t1.5 -69.5q6 -78 -7 -94q-8 -10 -7 -15.5t13 -14.5q23 -18 53 -12t58 25.5t49.5 54t27.5 71.5q5 37 -12.5 83.5t-41.5 59.5z" />
    <glyph glyph-name="c" unicode="c" horiz-adv-x="304" 
d="M148 467q44 23 61 24.5t45 -13.5q34 -17 39.5 -44t-21.5 -41q-13 -7 -16 -5.5t1 15.5q5 22 -18 37q-16 10 -26.5 9t-40.5 -14q-38 -16 -67.5 -52t-43.5 -84q-15 -48 -7 -81.5t39 -61.5q59 -51 149 -10q37 17 40 11.5t-27 -34.5q-25 -25 -69.5 -33t-78.5 7q-33 13 -61 48
t-34 69q-11 69 29 144.5t107 108.5z" />
    <glyph glyph-name="d" unicode="d" horiz-adv-x="376" 
d="M337 678q10 32 21 32q8 1 8 -17q0 -19 -25 -154.5t-35 -174.5q-7 -25 -33 -90.5t-26 -86.5q0 -32 -28 -53t-75 -25q-37 -3 -51 1.5t-40 28.5q-23 21 -31 36t-11 46q-5 58 10.5 101.5t55.5 82.5q49 47 97 55t86 -25q17 -15 25 0q9 16 25 111q17 101 27 132zM221 424
q-24 10 -34 8.5t-45 -17.5q-17 -8 -34.5 -22t-26.5 -26q-19 -27 -29.5 -56.5t-11 -55t5 -48.5t19.5 -39t32 -24.5t42 -6.5t50 15q30 15 24 30t29 100q25 60 28 75.5t-8 33.5q-16 24 -41 33z" />
    <glyph glyph-name="e" unicode="e" horiz-adv-x="279" 
d="M114 433q26 9 61.5 4t57.5 -19t23 -47t-21 -60q-22 -28 -62.5 -46.5t-79.5 -18.5q-45 0 -45 -9q0 -15 29.5 -43.5t52.5 -36.5q30 -9 113 -18q25 -3 26 -9q0 -4 -9 -11q-19 -14 -69.5 -9t-90.5 26q-39 19 -62 52.5t-26.5 70.5t5.5 72.5t34.5 63t62.5 38.5zM208 393
q-24 14 -52 11t-52 -15.5t-41 -35.5t-18 -48l-2 -34l45 3q77 5 118 57q19 24 19.5 38t-17.5 24z" />
    <glyph glyph-name="f" unicode="f" horiz-adv-x="255" 
d="M72 625q53 10 84 -3.5t48 -55.5q7 -16 11 -41t3 -43.5t-7 -18.5q-5 0 -14.5 29t-22.5 61t-25 38q-16 9 -48.5 4t-37.5 -17q-4 -11 24 -105l28 -94l53 -3q67 -4 77 -22q5 -10 -15 -15q-15 -4 -42 -4q-49 0 -53 -8t6 -89q12 -96 -1 -111q-6 -7 -14 13q-10 25 -18 76
q-11 72 -21.5 90t-42.5 21q-34 3 -34 15q0 8 22 11q15 2 22 5.5t11.5 9.5t2.5 21.5t-6.5 34t-15.5 54.5q-22 74 -23.5 91.5t11.5 31.5q17 20 38 24z" />
    <glyph glyph-name="g" unicode="g" horiz-adv-x="266" 
d="M82 416q25 24 53.5 26.5t44.5 -16.5q29 -33 54 -138t21 -178q-3 -59 -18.5 -90.5t-50.5 -48.5q-33 -16 -70 4t-37 53q0 11 29 -11q45 -32 76.5 -6t38.5 103q6 53 -3 60t-44 -22q-30 -25 -74 -25q-54 0 -76 34t-14 109q9 90 70 146zM166 401q-27 32 -68 -15
q-44 -49 -55 -118q-5 -38 5 -64q16 -44 56 -42.5t78 46.5q23 27 24 46t-19 57q-17 32 -15.5 58.5t-5.5 31.5z" />
    <glyph glyph-name="h" unicode="h" horiz-adv-x="240" 
d="M38 161q-17 0 -23.5 118t-4.5 235.5t8 117.5q7 0 13.5 -51t6.5 -110q0 -57 6 -57t19.5 10.5t26.5 19.5t32.5 7t38.5 -22q23 -24 45 -101t24 -135q1 -62 -11 -65q-7 -1 -14 30l-23 119q-9 44 -20.5 78t-23.5 52t-22 15q-12 -4 -32 -31q-18 -23 -22.5 -81.5t-7.5 -103.5
t-16 -45z" />
    <glyph glyph-name="i" unicode="i" horiz-adv-x="117" 
d="M20 290q10 128 18 138q3 5 10 1q10 -6 9.5 -119.5t-10.5 -139.5q-6 -17 -10.5 -19t-12.5 6q-9 9 -9.5 35t5.5 98zM24 587q22 33 56 22q26 -9 27 -34q0 -19 -19 -36q-13 -12 -20.5 -12.5t-28.5 10.5q-27 14 -28.5 20t13.5 30zM68 562q13 0 2 15q-5 5 -8 5q-4 0 -4 -10
t10 -10z" />
    <glyph glyph-name="j" unicode="j" horiz-adv-x="303" 
d="M192 436q7 38 17 36q7 -3 8 -31q5 -153 -23.5 -275.5t-71.5 -133.5q-25 -6 -56 7t-45 35q-20 31 -4 29q10 -2 33 -15q32 -20 50 -19.5t32 22.5q15 23 34.5 116t19.5 143q0 49 6 86zM218 635q21 14 44.5 15t28.5 -12q7 -18 -7.5 -41.5t-38 -36t-39.5 -3.5q-14 10 -10 37.5
t22 40.5zM247 599q11 12 0 17t-17 -5q-7 -11 0 -16t17 4z" />
    <glyph glyph-name="k" unicode="k" horiz-adv-x="286" 
d="M67 354q4 0 14 16.5t37 56.5t62 81q55 64 64 64q29 0 2 -39q-8 -11 -19 -23q-34 -37 -78 -94.5t-44 -65.5q0 -6 57 -59q60 -56 98 -133q28 -57 8 -62q-5 -1 -16.5 16.5t-28 44.5t-35 56t-42.5 56t-45 38q-17 10 -28.5 -1t-16.5 -34t-8 -46.5t-7 -41.5t-10 -18
q-17 0 -20 38.5t5 145.5q5 71 8.5 108t7.5 60.5t7.5 28.5t9.5 3q11 -4 11 -100t7 -96z" />
    <glyph glyph-name="l" unicode="l" horiz-adv-x="110" 
d="M74 599q7 63 19 62q6 0 7 -27q3 -81 -29.5 -300t-49.5 -225q-11 -3 -11 32t8.5 96t19 124.5t21.5 133t15 104.5z" />
    <glyph glyph-name="m" unicode="m" horiz-adv-x="395" 
d="M260 376q13 25 33.5 46.5t30.5 21.5q31 0 49 -69.5t10 -155.5q-7 -72 -14.5 -72t-11.5 123q-2 76 -6 103t-15 38q-13 13 -18 12t-19 -19q-49 -64 -49 -194q0 -81 -14 -93q-22 -17 -27 26q-2 19 -3 74q-1 122 -19 151q-13 20 -18.5 21.5t-17.5 -9.5q-20 -19 -47.5 -85
t-46.5 -142q-22 -91 -35 -91q-8 0 -10 34t-2 135q1 168 1.5 171.5t15.5 -8.5t15 -65q0 -55 12 -52q7 2 17 32q11 34 41 74q17 24 29 32.5t30 8.5t26.5 -6.5t19.5 -28.5q10 -21 16.5 -28t12.5 -3.5t14 18.5z" />
    <glyph glyph-name="n" unicode="n" horiz-adv-x="382" 
d="M186 436q78 52 118 7.5t19 -161.5q-13 -71 -14 -106q-1 -24 4 -29t28 -5q33 0 31 -17q-1 -15 -24 -23q-39 -14 -62 24q-1 1 -2 3q-9 16 -9.5 40t7.5 94q10 95 3.5 128t-36.5 33q-26 0 -71.5 -43t-68.5 -89q-20 -40 -37.5 -104.5t-29 -92t-27.5 -11.5q-7 2 -4.5 45.5
t8 88.5t11.5 101t6 84q0 38 9 39q2 0 3 -1q8 -3 12 -34.5t7 -61.5t9 -30q9 0 9 9q0 13 36 52.5t65 59.5z" />
    <glyph glyph-name="o" unicode="o" horiz-adv-x="330" 
d="M101 468q27 15 39.5 14t32.5 -19q23 -19 42 -19q23 0 59.5 -40t42.5 -72q10 -56 -13.5 -109.5t-71.5 -87t-105 -33.5q-33 0 -48 5t-30 21q-31 31 -37 85t7.5 105.5t36.5 94.5t45 55zM166 448q-11 10 -29.5 3.5t-36.5 -27.5q-41 -49 -52.5 -136.5t17.5 -124.5
q22 -28 63.5 -27t81.5 30q72 52 72 129q0 54 -26.5 86t-70.5 33q-27 0 -27 6q0 2 4 7q11 14 4 21z" />
    <glyph glyph-name="p" unicode="p" horiz-adv-x="277" 
d="M93 453q42 17 91.5 2t67.5 -50q15 -28 15.5 -79t-13.5 -83q-21 -51 -65 -88t-95 -48q-20 -4 -26.5 -14t-14.5 -48q-11 -56 -17 -72q-9 -22 -19 -6q-7 13 -7 38q0 23 22 167t33 191q4 15 1 18t-16 -1q-20 -7 -20 2q0 12 23.5 38.5t39.5 32.5zM215 399q-22 26 -59 32
q-25 4 -32.5 0.5t-14.5 -21.5q-10 -27 -10 -53.5t-15 -110.5q-12 -68 -6.5 -85.5t35.5 -10.5q34 9 63.5 40t45 68.5t15 77t-21.5 63.5z" />
    <glyph glyph-name="q" unicode="q" horiz-adv-x="330" 
d="M131 454q32 19 46.5 17.5t37.5 -26.5q19 -21 25.5 -27.5t17.5 -22t13.5 -18.5t7 -19.5t4.5 -21v-27.5t-1 -34.5t-4 -45.5q-11 -125 -6 -133.5t24 -8.5q23 0 24 -10.5t-21 -22.5q-16 -8 -24 -21.5t-14 -44.5q-9 -47 -19 -48t-15 45l-5 48l-37 -4q-23 -2 -32 2.5t-1 13.5
t30 18q30 12 42.5 31.5t12.5 51.5q0 51 -31 13q-23 -26 -61.5 -49t-61.5 -23q-59 0 -71 77q-13 82 31 179q35 79 88 111zM218 388q-20 46 -39 46q-22 0 -49.5 -26t-48.5 -66q-16 -32 -21.5 -57t-5.5 -74v-79l27 -4q26 -3 60.5 22t66.5 69q52 71 10 169z" />
    <glyph glyph-name="r" unicode="r" horiz-adv-x="282" 
d="M229 442q23 9 30.5 9.5t12.5 -6.5q2 -4 -9 -14t-29 -21q-68 -40 -119 -122.5t-65 -175.5q-13 -84 -29 -84q-5 0 -9 5q-8 7 11.5 185t29.5 194q14 23 19 -4q4 -18 0 -49q-5 -54 4 -54t32 35q20 29 57 60.5t64 41.5z" />
    <glyph glyph-name="s" unicode="s" horiz-adv-x="223" 
d="M57 438q23 21 58.5 24.5t61.5 -9t26 -36.5q0 -9 -6.5 -12t-14.5 1t-12 13q-6 15 -39 15q-35 0 -61.5 -28.5t-23.5 -61.5q3 -23 13.5 -33.5t54.5 -32.5q64 -31 82 -53q30 -37 9 -77.5t-69 -40.5q-20 0 -35 8t-38 31q-15 15 -26.5 33t-11.5 26q0 30 17 13q9 -9 25 -32
q25 -36 51.5 -44.5t47.5 13.5q22 21 10.5 38.5t-64.5 46.5q-51 28 -70.5 44t-27.5 39q-10 25 2.5 58.5t40.5 56.5z" />
    <glyph glyph-name="t" unicode="t" horiz-adv-x="282" 
d="M126 427q3 81 13 76q12 -6 21 -114q2 -20 7 -24t25 -2q45 7 62.5 5t17.5 -14q0 -9 -15 -15.5t-70 -21.5q-17 -5 -21.5 -18.5t-7.5 -72.5q-3 -50 -7 -67t-13 -17t-12 15.5t-3 63.5q0 68 -7 76q-4 4 -18 6q-96 10 -87 23q5 8 55 15l57 9z" />
    <glyph glyph-name="u" unicode="u" horiz-adv-x="300" 
d="M22 401q19 29 21 -13q1 -17 0 -66q-4 -136 14 -163q6 -9 14 -11q16 -3 47 25t58 71q20 29 25.5 49t5.5 55q0 55 11 62q22 13 29 -29q5 -29 5 -94q0 -67 4 -94.5t18 -55.5q23 -44 13 -54q-8 -8 -20 0.5t-23 30t-18 47.5q-13 50 -16 54q-1 2 -23.5 -22.5t-50 -50.5
t-59.5 -31t-54 38q-12 23 -13 85t4 112t8 55z" />
    <glyph glyph-name="v" unicode="v" horiz-adv-x="267" 
d="M10 405q0 24 12 26q13 2 21 -30q7 -25 43 -100.5t42 -75t29 54.5q44 102 81 136q19 18 19 -6q0 -8 -46 -100t-51 -131q-6 -47 -19 -47q-10 0 -70.5 126t-60.5 147z" />
    <glyph glyph-name="w" unicode="w" horiz-adv-x="389" 
d="M12 448q13 12 28 -29q26 -67 23 -145q0 -11 -1 -21q-5 -37 3.5 -37t78.5 51q66 48 83.5 44t13.5 -65q-4 -60 2 -60t42 62q23 39 38.5 77t34.5 107q1 5 5.5 6.5t8.5 -0.5q12 -8 4 -54.5t-29 -92.5q-20 -44 -72.5 -116.5t-64.5 -72.5q-8 0 -9 24t1 53t0.5 52.5t-10.5 23.5
q-18 -1 -72 -47t-67 -72q-16 -35 -31 -34q-12 0 -9 25q8 61 9 176.5t-6 124.5q-11 13 -4 20z" />
    <glyph glyph-name="x" unicode="x" horiz-adv-x="278" 
d="M126 285q0 5 -39.5 75.5t-39.5 76.5q0 22 27 -7q17 -17 35 -46q39 -59 46 -59t34 38q17 25 34 43.5t29 27t16 3.5q4 -7 -39 -79t-43 -79q-1 -8 37.5 -63t34.5 -61q-11 -18 -33.5 2t-44 49.5t-26.5 29.5q-6 0 -63 -70q-61 -75 -76 -62q-3 2 -5 9t57 87t59 85z" />
    <glyph glyph-name="y" unicode="y" horiz-adv-x="212" 
d="M95 123q0 17 -17.5 88.5t-33 135t-12.5 69.5q10 16 27 -27q10 -24 27 -74q33 -99 39 -99t26 61t29 105q7 32 17 32q11 0 0.5 -55.5t-29.5 -129.5t-21 -92q-2 -17 -6 -27t-9 -18t-19.5 -35.5t-32.5 -65.5q-38 -82 -52 -94q-19 -15 -17 0q1 16 50 128q34 79 34 98z" />
    <glyph glyph-name="z" unicode="z" horiz-adv-x="401" 
d="M347 439q20 14 29 14t14 -14q6 -16 -29 -48q-34 -31 -119.5 -139t-80.5 -113q4 -4 106.5 5.5t105.5 6.5q5 -4 -11 -20q-14 -15 -139 -26t-143 -23q-19 -12 -40 -13.5t-28 9.5q-8 13 13 31.5t49 23.5q21 4 42.5 22.5t65.5 72.5q111 132 102 141q-4 3 -65 -7
q-49 -8 -91.5 -2t-48.5 22q-2 6 11 9t48 3q54 0 120 14t89 31z" />
    <glyph glyph-name="braceleft" unicode="{" horiz-adv-x="307" 
d="M125 416q-6 25 5.5 55t34.5 52.5t53.5 34t62.5 -1.5q26 -9 12 -18q-10 -5 -34 -5q-39 0 -70 -29q-29 -27 -30 -58t24 -92q14 -32 20 -58t4 -41.5t-6 -29t-10.5 -20t-11 -15t-6 -15t4.5 -18.5q13 -24 9 -62.5t-23 -76.5q-35 -69 -17 -97t91 -17q37 5 35 -2q-2 -8 -44 -22
q-55 -18 -95 6t-29 68q4 16 29 73t23 83l-3 32l-72 -4q-46 -2 -59 0t-13 12q0 15 52 22q30 4 47.5 12.5t37.5 27.5q24 24 28 48.5t-4 43t-23.5 52t-22.5 60.5z" />
    <glyph glyph-name="bar" unicode="|" 
 />
    <glyph glyph-name="braceright" unicode="}" horiz-adv-x="266" 
d="M79 230q0 15 11 36.5t21.5 37t30.5 42.5l18 24t15.5 22t13 21.5t7.5 19t2.5 17.5t-5.5 13.5t-13.5 11t-24.5 6t-35 2.5q-46 0 -45 9q1 7 29 14q25 7 58.5 0.5t42.5 -19.5q20 -27 11 -65.5t-48 -94.5q-51 -73 -45 -78.5t56 -7.5q45 -2 65.5 -17t6.5 -36q-9 -14 -53.5 -17
t-76.5 8q-13 5 -22.5 1t-24.5 -20q-20 -22 -27 -42.5t-3 -36t11.5 -32t16.5 -29t11.5 -28.5t-3.5 -30q-11 -23 -35 -23q-14 0 -20.5 3.5t-4 9t14.5 10.5q15 6 13.5 24.5t-19.5 41.5q-19 24 -19 67q0 26 6.5 41t28.5 39q34 38 34 55z" />
    <glyph glyph-name="asciitilde" unicode="~" horiz-adv-x="622" 
d="M13 208q-3 5 -2 17.5t12 29.5t24.5 32.5t34.5 26.5t43 11q25 0 43 -13t68 -66q48 -51 67.5 -65.5t40.5 -14.5q29 0 52 11.5t55 41.5q36 34 41 19q3 -8 -9 -30q-16 -28 -60.5 -51t-81.5 -23q-29 0 -46 12t-69 69q-45 49 -70 66.5t-45 13.5t-47 -32q-33 -32 -38 -47
q-2 -6 -6 -8.5t-7 0.5zM513 399q0 16 11 35t23 19q10 0 37.5 -32t27.5 -45q0 -11 -36 -36.5t-49 -22.5q-7 1 -15 12.5t-13 26.5q-11 32 -4 32q1 0 5 -1q13 -5 13 12zM569 398q-12 27 -27 25q-9 -2 -9 -18q0 -19 -10 -22q-8 -3 -3.5 -25.5t12.5 -22.5q6 1 28 19
q14 12 15.5 19.5t-6.5 24.5z" />
    <glyph glyph-name="cent" unicode="&#xa2;" horiz-adv-x="362" 
d="M224 374q10 0 16.5 2t11.5 5t11.5 12.5t12 18.5t17 29.5t22.5 38.5q32 51 37 36q4 -15 -26 -75l-35 -71l26 -19q25 -18 25 -42q0 -33 -17 -16q-4 4 -13 16q-20 26 -28 26t-69.5 -110t-56.5 -115q6 -6 36.5 8t44.5 30q29 31 29 10q0 -5 -2 -12q-5 -20 -44 -49t-69 -35
q-18 -4 -31.5 -21.5t-42.5 -73.5q-19 -36 -36.5 -62t-22.5 -26q-27 0 28 117l29 62l-20 22q-20 22 -21 70.5t18 90.5q29 63 73.5 98t96.5 35zM227 338q-9 14 -38.5 1t-60.5 -45q-42 -44 -58 -105t9 -81q11 -9 19 -2q11 11 79 130q55 94 50 102z" />
    <glyph glyph-name="sterling" unicode="&#xa3;" horiz-adv-x="466" 
d="M311 549q50 23 77.5 22.5t46.5 -24.5q26 -33 20 -49q-1 -5 -6 -5t-14.5 15t-21.5 29.5t-23 14.5q-27 0 -66 -22.5t-50 -43.5q-15 -29 -34.5 -94.5t-14.5 -70.5q6 -6 59 -6t53 -9q0 -6 -22.5 -11t-84.5 -12q-14 -2 -22.5 -12.5t-18.5 -36.5q-11 -28 -12 -37t2.5 -13.5
t17 -23.5t27.5 -50q9 -20 21.5 -37t20.5 -20q16 -5 45 5t48 26q20 19 23.5 9t-15.5 -31q-25 -26 -57.5 -35.5t-57.5 2.5q-22 11 -31.5 24.5t-26.5 56.5q-6 15 -14 26t-13.5 11t-16.5 -18.5t-21 -43.5q-23 -54 -48.5 -77t-49.5 -11q-21 11 -21 51t20 73q13 21 34 35t75 40
q12 5 26 40.5t7 42.5q-6 6 -64 6q-55 0 -57 11q-2 9 46 10q25 1 37 1.5t26 4.5t19 8.5t13 17.5t12.5 26t13.5 40q12 38 16.5 51.5t13 33.5t11 24t13 13.5t16.5 12t23 10.5zM121 131q4 23 -12 21q-16 -1 -39 -25q-38 -41 -37 -82q0 -28 21 -26q5 0 11 2q12 5 31.5 43t24.5 67
z" />
    <glyph glyph-name="section" unicode="&#xa7;" 
 />
    <glyph glyph-name="guillemotleft" unicode="&#xab;" horiz-adv-x="315" 
d="M267 345q40 25 38 9q-2 -13 -34 -48q-41 -44 -54 -70t-7 -53.5t36 -75.5q30 -51 23 -57q-5 -6 -26 15t-42 51.5t-26 49.5q-12 44 15 96t77 83zM80 333q59 62 73 51q3 -1 3 -7q0 -8 -43 -57q-42 -48 -55 -74.5t-7 -48.5t36 -54q46 -51 39.5 -64.5t-51.5 27.5q-7 6 -15 14
q-54 54 -50 98.5t70 114.5z" />
    <glyph glyph-name="guillemotright" unicode="&#xbb;" horiz-adv-x="349" 
d="M231 363q0 28 46 -20q66 -70 62 -141t-75 -101q-56 -24 -61 -11q-3 10 30 30q4 2 8 5q61 34 66.5 75t-41.5 105q-35 47 -35 58zM103 296q-31 50 -30 69q1 14 31 -20q27 -32 47 -73t20 -66q1 -41 -48 -95t-86 -54q-29 0 -27 13q2 11 32 26q140 71 61 200z" />
    <glyph glyph-name="questiondown" unicode="&#xbf;" horiz-adv-x="337" 
d="M241 335q2 61 7 61q3 0 14 -14q12 -14 14 -29.5t-2 -52.5q-7 -68 -26.5 -100t-68.5 -56q-46 -23 -86.5 -64t-47.5 -72q-10 -46 26.5 -87.5t87.5 -41.5q26 0 58.5 17t53.5 42q26 30 32 30q5 0 5.5 -8.5t-4 -21.5t-12.5 -24q-28 -43 -83 -58t-108 2t-75 61q-34 64 2 134
t125 115q52 26 68.5 57.5t19.5 109.5zM242 566q6 16 41.5 16t41.5 -16q7 -18 -6 -33t-36 -15t-35.5 15t-5.5 33z" />
    <glyph glyph-name="Agrave" unicode="&#xc0;" horiz-adv-x="700" 
d="M249 43q6 23 16 24q10 0 10 -18.5t7 -23.5t19 5q13 11 19 5q6 -7 -12 -27t-30 -20q-15 0 -24.5 17.5t-4.5 37.5zM419 163q26 45 36 35q8 -9 -12.5 -51.5t-36.5 -47.5q-21 -7 -6 29q7 14 19 35zM462 493q20 0 88 -24.5t89 -24.5t36 -10.5t15 -24.5q0 -11 -35 -53
q-26 -31 -28.5 -39t9.5 -22q18 -20 10 -34.5t-40 -20.5q-30 -6 -40.5 -21.5t-22.5 -74.5q-5 -24 -20 -57.5t-41.5 -74t-59 -72.5t-78 -47.5t-91.5 -3.5q-87 24 -131 111q-22 43 -24.5 84t12.5 106q14 60 9.5 67.5t-31.5 8.5q-23 0 -48.5 12t-29.5 24q-2 7 22 22t49 29t25 18
q0 7 -32 35q-32 26 -19 37q12 10 79 20q80 12 110 27.5t49 55.5l22 45l61 4q78 4 134.5 2t56.5 -10q0 -10 -63 -30q-71 -23 -78 -46q-4 -12 14 -16q9 -2 22 -2zM242 242q-3 4 -32.5 9.5t-42 -11.5t-23.5 -80q-11 -66 -3 -106.5t41 -76.5q53 -58 113.5 -56t117.5 63
q37 40 67.5 103t33.5 104l3 40l-45 3q-30 2 -59 -9t-47.5 -25t-42 -23.5t-44.5 -5.5q-21 3 -28.5 -1.5t-19.5 -29.5q-17 -36 -27 -26q-8 8 3 38t24 58.5t11 31.5zM290 235q-11 18 -22.5 8t-3.5 -31q4 -12 7.5 -12.5t11.5 9.5q13 16 7 26z" />
    <glyph glyph-name="Aacute" unicode="&#xc1;" horiz-adv-x="481" 
d="M128 271q11 7 69 95t113 172t60 84q14 0 15 -40.5t-10 -174.5q-6 -76 -12 -154.5t-9 -121t-6 -80t-5.5 -52.5t-5.5 -17q-14 -9 -20 35q-6 43 -1 123q6 112 -3 117.5t-78 -5.5l-69 -11l-43 -70q-90 -148 -108 -148q-2 0 -4 2q-6 6 19 54t53 100t28 64q0 17 17 28zM323 303
q5 8 11 98.5t-1 91.5q-9 0 -72 -99.5t-57.5 -105t60 1t59.5 13.5zM395 782q16 18 46 18h30l-33 -25q-34 -25 -40 -25q-12 0 -13 10t10 22z" />
    <glyph glyph-name="Acircumflex" unicode="&#xc2;" 
 />
    <glyph glyph-name="Adieresis" unicode="&#xc4;" 
 />
    <glyph glyph-name="Ccedilla" unicode="&#xc7;" 
 />
    <glyph glyph-name="Egrave" unicode="&#xc8;" horiz-adv-x="869" 
d="M475 41l2 46l54 -5q55 -6 68 -11t13 -20q0 -18 -36 -50.5t-56 -32.5q-26 0 -36.5 16.5t-8.5 56.5zM570 32q2 9 -4.5 12.5t-27.5 3.5q-22 0 -28.5 -4t-6.5 -16q0 -19 15 -25.5t31.5 2t20.5 27.5zM413 593q-12 23 -1.5 42.5t34 30.5t51 18.5t49.5 6.5t29 -6q6 -6 -34 -43
q-30 -29 -35.5 -45t11 -24t40 -13t58 -15.5t57.5 -26.5q27 -18 54.5 -57.5t38.5 -76.5q3 -10 17 -28t31 -33l41 -36l4 -184q3 -184 -2 -184q-23 0 -46.5 34t-34.5 83q-7 31 -13.5 31t-30.5 -50q-36 -76 -122.5 -125t-163.5 -38q-73 11 -121.5 91.5t-48.5 193.5q0 57 -10 57
t-10 -16q0 -18 -28.5 -56t-69.5 -84.5t-54 -65.5q-20 -30 -44 -39t-40 8q-14 14 -5 25.5t66 54.5q24 18 40 75t16 123q0 151 46.5 230.5t127.5 66.5q24 -4 40 -0.5t38 16.5q29 17 33 27t-8 32zM488 634q7 18 -5 17q-8 -1 -24 -12q-22 -16 -12 -41q7 -18 19 -13q6 3 9 14
q6 18 13 35zM617 504q-39 17 -104 17.5t-114 -16.5q-35 -13 -43.5 -21.5t-13.5 -37.5q-11 -66 -17.5 -141.5t-1.5 -80.5q9 -10 59 16.5t55 43.5q3 14 7.5 16t18.5 -5q12 -6 24.5 -4t37.5 14q42 22 59 37q27 24 35 -5.5t-11 -83.5q-13 -36 -9 -41q5 -5 27.5 7t44.5 32
q25 22 45 26q28 5 21 59q-8 69 -61 125q-27 28 -59 43zM308 463q1 33 -30 27q-36 -6 -67 -50q-7 -9 -12 -19q-15 -28 -25 -153.5t-13 -137.5q-6 -24 4 -22q13 3 48 56q17 25 31.5 45t19.5 27t9 14.5t6 17.5q10 52 19.5 115.5t9.5 79.5zM819 286q-18 33 -26 9q-3 -10 -3 -29
q0 -33 -5 -71t-9 -60t-3 -42.5t11.5 -31t17 -29t10.5 -31.5t9.5 -13t7.5 69.5t-1 143.5t-9 85zM522 161q0 4 12 22t25.5 42.5t17.5 41.5q7 26 -7 27q-13 0 -59 -24q-36 -18 -42 -27.5t-6 -47.5q0 -47 -13 -47q-11 0 -17 39q-5 34 -14 34q-18 -1 -50.5 -10.5t-41.5 -16.5
q-13 -11 -12 -64t16 -105q24 -85 76 -116t130 -6q60 19 98.5 51t64.5 87q24 48 40.5 119.5t5.5 82.5q-8 6 -17.5 0.5t-19.5 -22.5t-16 -39q-14 -48 -25 -45q-7 1 -7 23q0 26 -11 29t-47 -13q-20 -9 -39 -14.5t-29.5 -5.5t-12.5 5z" />
    <glyph glyph-name="Eacute" unicode="&#xc9;" horiz-adv-x="443" 
d="M236 573q116 8 147 7t41 -13q3 -4 5.5 -7.5t3.5 -5.5t0 -3q-4 -1 -131 -12l-128 -11l-24 -94q-25 -94 -26 -109q-1 -5 2.5 -7.5t15 -4.5t29.5 -2.5t49 -0.5l98 1l-23 -19q-16 -12 -34.5 -14.5t-71.5 0.5q-7 0 -18 1q-22 2 -30 2.5t-20 -3.5t-15 -7t-10.5 -17.5t-11 -26.5
t-12.5 -43q-5 -16 -7 -26q-19 -64 -16 -74q2 -5 14 -13q18 -14 74.5 -9t116.5 26q56 19 60 16q1 -2 1 -13q0 -20 -54.5 -39t-124.5 -22q-43 -1 -69 -1t-39 8t-16 20.5t0 37.5q4 35 56 203t56 206q6 49 17 56t95 13zM288 722q64 68 73 65q4 -1 4 -14q0 -15 -56 -73t-70 -58
q-15 0 -9 11q7 14 58 69z" />
    <glyph glyph-name="Ecircumflex" unicode="&#xca;" 
 />
    <glyph glyph-name="Edieresis" unicode="&#xcb;" 
 />
    <glyph glyph-name="Icircumflex" unicode="&#xce;" 
 />
    <glyph glyph-name="Idieresis" unicode="&#xcf;" 
 />
    <glyph glyph-name="Ntilde" unicode="&#xd1;" horiz-adv-x="577" 
d="M147 662q16 27 32 -32q9 -30 19 -88q25 -152 63.5 -278.5t58.5 -126.5q10 0 10 22q0 49 64 237t83 194q20 7 3 -56q-10 -40 -35 -107q-59 -157 -82 -289q-8 -40 -24 -53t-37 6q-30 27 -62.5 123t-53 177.5t-24.5 81.5q-6 0 -19 -77q-22 -130 -80 -272q-37 -87 -51 -79
q-6 5 0.5 27.5t21.5 66t32.5 99t36 144t28.5 183.5q10 87 16 97zM217 702q3 5 8.5 5.5t22.5 -3t40.5 -8t73 -10.5t110.5 -10q120 -8 89 -23q-6 -2 -16 -5q-67 -18 -206 5q-118 20 -123 43q-1 3 1 6z" />
    <glyph glyph-name="Oacute" unicode="&#xd3;" horiz-adv-x="547" 
d="M216 586q16 8 33.5 12.5t29.5 3.5t12 -8q0 -9 -30 -15q-32 -6 -65.5 -37.5t-61.5 -76.5t-49.5 -99.5t-33 -107t-9.5 -100.5t20 -77q26 -42 83.5 -50t119.5 13t121.5 69.5t89.5 110.5q27 55 28.5 122t-23.5 113q-18 36 -50 64.5t-52 28.5q-8 0 -13.5 3t-5.5 7q0 21 46 2
q47 -18 76 -50q35 -39 46.5 -79.5t7.5 -108.5q-4 -69 -29 -121.5t-78.5 -102t-107.5 -74t-120 -28.5q-61 -3 -92.5 7t-62.5 43q-35 37 -35.5 115.5t25.5 160t75 156t105 104.5zM358 711q42 60 42 26q0 -15 -21.5 -40.5t-34.5 -25.5q-14 0 14 40z" />
    <glyph glyph-name="Ocircumflex" unicode="&#xd4;" 
 />
    <glyph glyph-name="Odieresis" unicode="&#xd6;" 
 />
    <glyph glyph-name="Ugrave" unicode="&#xd9;" horiz-adv-x="476" 
d="M178 68q0 6 10.5 8t24.5 0t23 -8q15 -10 9 -16t-36.5 1t-30.5 15zM113 578q9 4 32 8.5t65 4.5t83 -11t84 -47t70 -94q19 -43 18.5 -127.5t-20.5 -138t-59 -108t-78 -84.5q-27 -21 -44.5 -26.5t-50.5 -5.5q-202 1 -203 208q0 45 17 163.5t28 146.5q6 16 16 16
q8 0 6 -128.5t3 -128.5q8 0 48.5 50.5t48.5 71.5q21 54 56 6q10 -15 21 -40q16 -36 27.5 -48t22 -2.5t22.5 41.5q14 39 28 42t26 -31q13 -41 29 -38q19 2 20 50q1 23 -4 49q-10 55 -38 94t-64 58t-77.5 25.5t-80 0.5t-70.5 -20q-49 -22 -54 -22q-12 0 29 34q27 23 43 31z
M307 186q0 12 -10.5 21.5t-27 26.5t-27.5 41q-34 77 -34 1q0 -60 -20 -82q-13 -14 -18 15q-2 11 -2 27v39l-43 -44q-18 -19 -35.5 -32t-24.5 -13q-9 0 -12.5 -9.5t-3.5 -35.5q0 -71 41.5 -112t116.5 -44q29 -1 45 4t37 21q30 23 68 78t53 98q11 30 9.5 36.5t-17.5 12.5
q-23 9 -29 24q-7 18 -17 15.5t-10 -22.5q0 -23 -11 -54.5t-20 -31.5q-8 0 -8 20z" />
    <glyph glyph-name="Uacute" unicode="&#xda;" horiz-adv-x="543" 
d="M69 553q5 8 13.5 9.5t14 -3.5t2.5 -13q-11 -39 -29.5 -152t-22.5 -168q-6 -80 1 -119.5t31 -67.5q43 -51 110 -33t146 102q39 42 54.5 66.5t25.5 59.5q23 82 50.5 161.5t38.5 93.5q14 19 26 7q9 -9 -8.5 -78.5t-53.5 -163.5q-29 -75 -36 -132q-7 -59 -24 -64
q-7 -2 -13 12l-2 6q-5 21 -9.5 21t-46.5 -40q-86 -84 -175.5 -88.5t-130.5 74.5q-30 65 -19 182.5t31 218t26 109.5zM376 752q63 50 62 33q0 -3 -1 -7q-4 -11 -61.5 -59t-62.5 -44q-6 7 11 28t52 49z" />
    <glyph glyph-name="Ucircumflex" unicode="&#xdb;" 
 />
    <glyph glyph-name="Udieresis" unicode="&#xdc;" 
 />
    <glyph glyph-name="germandbls" unicode="&#xdf;" horiz-adv-x="650" 
d="M94 211q37 13 52 13.5t33 -9.5q17 -9 18 -31.5t-14 -42.5t-14 -27t17 -7q25 0 35.5 -16t3 -38t-30.5 -40q-35 -27 -68 -31.5t-51 15.5q-20 22 -11 29q6 4 20 -8q30 -24 24 13q-7 47 -42 119q-2 5 -3 5q-3 4 -21 -12q-28 -24 -32 -12.5t22 40.5q9 11 27.5 22.5t34.5 17.5z
M159 174.5q0 10.5 -29.5 11t-35.5 -9.5q-5 -8 5 -28.5t19 -20.5t25 18.5t16 29zM192 69q-7 11 -26 8t-24 -16q-8 -20 6 -27t30 8q20 18 14 27zM366 191q0 8 -19.5 78t-15.5 81q10 27 33 5q12 -10 22 -30q19 -37 39.5 -39t56.5 29q21 18 35.5 23.5t35.5 4.5q24 -2 30.5 -8
t8.5 -25q2 -15 9.5 -28t16 -19.5t15.5 -14t7 -10.5t-8 -8q-16 -6 -37 5q-13 7 -22.5 5.5t-24.5 -14.5q-54 -42 -91 6q-18 22 -30.5 17t-6.5 -32l6 -34.5t2 -19t-2.5 -9t-7.5 0.5q-6 1 -23 -10t-34 -28q-34 -31 -56 -37t-48 8q-19 10 -19 47q0 38 16 60t42 19q27 -3 29 -21
t-22 -42q-29 -28 -22 -32q3 -2 15 -2q16 0 43 29t27 45zM555 299q0 15 -13 15t-35 -15q-23 -16 -22 -34.5t25 -18.5q19 0 32 15.5t13 37.5z" />
    <glyph glyph-name="agrave" unicode="&#xe0;" 
 />
    <glyph glyph-name="aacute" unicode="&#xe1;" horiz-adv-x="298" 
d="M144 386q42 25 83 13t41 -49q0 -23 -7.5 -24t-19.5 19q-24 37 -75 9.5t-88 -96.5q-49 -91 -24 -111q23 -20 65.5 16.5t57.5 88.5q20 69 43 45q11 -11 -5 -69q-15 -53 -15.5 -70.5t12.5 -35.5q9 -12 16.5 -13t27.5 6q32 11 32 0q0 -16 -19.5 -32t-38.5 -16q-21 0 -41 15
t-20 31q0 33 -47 9q-51 -27 -93 -5q-16 9 -18.5 34t8 57.5t28.5 66.5t44 64t53 47zM200 537q58 66 58 21q0 -14 -41 -59t-49 -40q-13 8 -6 25.5t38 52.5z" />
    <glyph glyph-name="acircumflex" unicode="&#xe2;" 
 />
    <glyph glyph-name="adieresis" unicode="&#xe4;" 
 />
    <glyph glyph-name="ccedilla" unicode="&#xe7;" 
 />
    <glyph glyph-name="egrave" unicode="&#xe8;" 
 />
    <glyph glyph-name="eacute" unicode="&#xe9;" horiz-adv-x="292" 
d="M23 226q9 0 35.5 30t59 67.5t48.5 49.5q37 28 74 16t37 -52q0 -30 -47 -71t-99 -56q-50 -15 -66 -30.5t-16 -48.5q0 -45 43 -57t125 10l25 6l-23 -24q-15 -15 -31 -19t-61 -4q-47 0 -62 4t-28 20q-12 15 -15 30.5t0 47.5q4 52 -4 57q-10 6 -8 15t13 9zM235 341
q-6 32 -38 10q-16 -11 -44 -37q-72 -68 -51 -75q6 -2 18 2q48 15 84 46t31 54zM224 564q57 33 58 25q1 -5 -16 -23q-20 -21 -59.5 -43t-46.5 -16q-11 10 43 44q10 6 21 13z" />
    <glyph glyph-name="ecircumflex" unicode="&#xea;" 
 />
    <glyph glyph-name="edieresis" unicode="&#xeb;" 
 />
    <glyph glyph-name="icircumflex" unicode="&#xee;" 
 />
    <glyph glyph-name="idieresis" unicode="&#xef;" 
 />
    <glyph glyph-name="oacute" unicode="&#xf3;" horiz-adv-x="337" 
d="M137 375q22 17 44.5 16.5t22.5 -17.5q0 -15 -25 -15q-19 0 -43 -27.5t-43.5 -68t-35 -85t-16.5 -78.5t11 -50q12 -12 67 -12q34 0 54 5.5t48 23.5q69 44 81 118t-41 132q-16 18 -6 18q23 0 47.5 -49.5t24.5 -94.5q0 -77 -61 -131.5t-149 -55.5q-77 -1 -98 44.5t10 146.5
q16 51 48 104.5t60 75.5zM251 605q30 26 36 13q1 -2 1 -5q0 -12 -56.5 -70.5t-63.5 -53.5q-5 3 8 24.5t35 48.5t40 43z" />
    <glyph glyph-name="ocircumflex" unicode="&#xf4;" 
 />
    <glyph glyph-name="odieresis" unicode="&#xf6;" 
 />
    <glyph glyph-name="ugrave" unicode="&#xf9;" 
 />
    <glyph glyph-name="uacute" unicode="&#xfa;" horiz-adv-x="425" 
d="M10 80q0 60 29.5 167t49.5 107q10 0 9 -5q0 -6 -14 -45q-31 -85 -40.5 -172t10.5 -103q28 -24 97 42t122 167q25 47 38.5 60t19.5 -5.5t8 -74.5q2 -61 5.5 -74t19.5 -16q23 -3 38 9t13 3q-1 -9 -15 -25q-28 -31 -60.5 -12t-32.5 65q0 38 -7.5 38t-29.5 -39
q-22 -38 -74.5 -94.5t-77.5 -69.5q-50 -26 -79 -5t-29 82zM238 517q0 5 76.5 79.5t79.5 74.5q1 0 -0.5 -3.5l-4.5 -10.5t-7 -14q-19 -37 -88 -95q-56 -48 -56 -31z" />
    <glyph glyph-name="ucircumflex" unicode="&#xfb;" 
 />
    <glyph glyph-name="udieresis" unicode="&#xfc;" 
 />
    <glyph glyph-name="eogonek" unicode="&#x119;" 
 />
    <glyph glyph-name="quotedblleft" unicode="&#x201c;" horiz-adv-x="289" 
d="M227 637q24 24 41 24q11 0 11 -5q0 -6 -18 -32q-17 -24 -20 -40t1 -54q3 -34 1.5 -45.5t-10.5 -11.5q-20 0 -29 31.5t-2.5 71.5t25.5 61zM49 650q32 33 31 15q0 -11 -15 -37q-20 -34 -24 -63t10 -38q10 -6 1 -16q-9 -7 -18.5 -3.5t-16.5 17t-7 28.5q0 59 39 97z" />
    <glyph glyph-name="quotedblbase" unicode="&#x201e;" horiz-adv-x="295" 
d="M70 91q0 44 15 43q13 -1 22 -30q3 -10 3 -21q0 -29 -19 -71t-43 -69t-37 -19q-5 3 9.5 34t32 72t17.5 61zM258 164q0 3 10 -3q24 -14 15.5 -79t-39.5 -101q-30 -35 -30 -16q0 12 16 43q14 26 19.5 58.5t6.5 63t2 34.5z" />
    <glyph glyph-name="bullet" unicode="&#x2022;" 
 />
    <glyph glyph-name="Euro" unicode="&#x20ac;" horiz-adv-x="522" 
d="M279 588q33 14 67.5 13t80.5 -19q47 -18 67.5 -37.5t17.5 -42.5q-4 -24 -16 -26q-11 -1 -14 19q-3 24 -47.5 45.5t-89.5 21.5q-35 0 -59.5 -11.5t-62.5 -46.5q-23 -21 -50.5 -71t-20.5 -57q4 -4 43 -3t51 -14q21 -24 -21 -32q-14 -3 -38 -4q-38 -2 -46.5 -6.5t-8.5 -21.5
t7 -21t37 -4q48 0 46 -14q-1 -10 -32 -20q-38 -12 -46 -19q-12 -11 11 -53q35 -66 101 -89q73 -25 156 23q66 37 62 19q-3 -17 -46 -45q-33 -23 -63 -31q-80 -20 -145 12.5t-99 109.5q-18 40 -26.5 46.5t-41.5 6.5q-42 0 -43 9.5t41 17.5q30 6 36 12t6 31q0 17 -3.5 24.5
t-7.5 9.5t-18 4.5t-25 5.5q-18 6 1 21q16 13 39 13q19 0 28.5 10.5t27.5 51.5q24 51 66 98.5t78 63.5z" />
  </font>
</defs>
</svg>
